<svg width="39" height="39" viewBox="0 0 39 39" fill="none" xmlns="http://www.w3.org/2000/svg">
<path d="M15.7291 7.04238C15.7291 7.04238 15.9444 6.61167 16.0834 6.57349C16.2224 6.53532 16.5267 6.76378 17.0206 6.80822C17.5146 6.85266 18.8437 6.91533 19.1856 7.04238C19.5274 7.16943 19.6921 7.2321 19.7935 7.11815C19.8949 7.00421 19.9325 6.92843 20.0339 6.9535C20.1353 6.97857 20.705 7.32097 20.8691 7.43492C21.0332 7.54886 21.1226 7.32097 21.1984 7.34604C21.2742 7.37111 21.6417 7.64971 21.7938 7.66281C21.9459 7.67591 22.4518 7.67534 22.6165 7.66281C22.7811 7.65028 22.3253 8.16872 21.6924 8.2069C21.6924 8.2069 22.1481 8.8148 22.4142 8.87803C22.6803 8.94127 21.9077 8.82733 21.7807 8.75156C21.7807 8.75156 21.7807 8.95381 22.0593 9.10592C22.3379 9.25804 22.4774 9.32128 22.4774 9.32128C22.4774 9.32128 22.0342 9.40959 21.9203 9.42212C21.8063 9.43466 22.3042 9.81466 22.6506 9.7896C22.997 9.76453 22.4011 10.005 21.7961 9.94171C21.7961 9.94171 21.91 10.2454 22.1248 10.41C22.3396 10.5747 22.2644 10.5747 22.2644 10.5747C22.2644 10.5747 21.8593 10.3719 21.7704 10.4226C21.7704 10.4226 21.6439 10.8402 21.7961 11.0812C21.8934 11.2335 22.0034 11.3773 22.1248 11.5113C22.1248 11.5113 21.5682 11.1695 21.5551 11.2327C21.542 11.2959 21.53 11.9289 21.53 11.9289C21.53 11.9289 21.3021 11.7648 21.2514 11.7774C21.2007 11.7899 21.2389 12.3722 21.15 12.5875C21.0864 12.7299 20.9963 12.8588 20.8845 12.9675C20.8845 12.9675 20.9221 12.6764 20.8463 12.6508C20.8463 12.6508 20.5934 12.5493 20.5552 12.9675C20.517 13.3857 20.4031 13.6005 20.4031 13.6005C20.4031 13.6005 20.3017 13.2712 20.2134 13.233C20.125 13.1948 19.998 13.474 19.9598 13.8027C19.9598 13.8027 19.7319 13.3851 19.618 13.4865C19.504 13.588 19.5548 14.0813 19.5548 14.0813C19.5548 14.0813 19.2511 13.6256 19.1497 13.6763C19.0483 13.727 19.1497 13.993 19.2699 14.0813C19.2699 14.0813 18.6432 14.0306 18.7195 14.1702C18.7959 14.3098 19.2636 14.3725 19.3269 14.3092C19.3269 14.3092 19.479 15.0311 19.8083 15.284C20.1376 15.537 20.844 16.2338 21.1608 16.3728C21.1608 16.3728 21.5152 16.4742 22.0217 17.0314C22.5281 17.5886 23.8824 17.4239 24.4396 17.5253C24.9968 17.6267 26.6171 18.0819 27.2124 19.7535C27.2124 19.7535 28.5672 19.8549 29.6178 21.1083C30.6684 22.3617 31.3902 22.8551 31.8209 22.9816C32.2516 23.1081 32.9222 23.1462 32.9222 23.1462C32.9765 23.2568 33.023 23.371 33.0612 23.4881C33.0743 23.5644 34.1249 23.9695 34.0235 24.7164C33.9221 25.4633 33.5426 26.0837 32.7832 26.1595C32.0238 26.2353 30.9726 25.5898 30.947 25.4633C30.9213 25.3368 31.0359 25.1215 31.0991 24.9443C31.1267 24.8073 31.1089 24.6651 31.0484 24.5392C30.947 24.3364 30.0229 23.8299 29.2127 22.4626C29.2127 22.4626 28.0607 20.7534 27.364 20.3107C27.364 20.3107 27.5919 21.5003 27.0728 22.2096C26.5538 22.9189 26.073 23.2984 26.1995 23.9313C26.3259 24.5643 26.7441 25.6656 27.225 26.1658C27.7058 26.666 27.6557 26.6028 27.6557 26.6028C27.6557 26.6028 27.7822 27.6032 27.7947 27.704C27.8072 27.8049 28.4402 28.3752 28.4402 28.3752H28.6681C28.6681 28.3752 28.7695 28.8691 28.896 28.8942C29.0224 28.9193 29.2509 28.8566 29.3648 28.8942C29.4788 28.9318 30.1368 30.0593 30.1875 30.1983C30.2382 30.3373 28.9467 30.1983 28.9467 30.1983C28.9467 30.1983 28.4658 29.8565 28.0984 28.9449C28.0984 28.9449 28.01 29.4007 28.1365 29.5653C28.263 29.73 28.5416 29.9322 28.5416 30.11C28.5475 30.2586 28.5644 30.4066 28.5923 30.5527H29.0099C29.0099 30.5527 29.8332 31.7554 29.8332 31.8824C29.8332 32.0095 29.8206 32.1103 29.7318 32.0847C29.6429 32.059 28.757 31.8693 28.757 31.8693C28.757 31.8693 28.263 31.401 27.9086 31.2363C27.9086 31.2363 27.4278 30.9201 27.3896 30.6415C27.3896 30.6415 27.3264 29.6667 27.1617 28.9831C27.1617 28.9831 26.7817 27.4254 26.3516 26.9571C25.9214 26.4888 23.8573 25.1089 23.2494 24.2732C23.2494 24.2732 22.6672 23.6277 22.5532 22.8933C22.5532 22.8933 22.5281 21.6399 22.7053 21.412C22.7053 21.412 22.5532 21.7031 22.2621 21.7664C21.971 21.8296 18.3754 21.7157 16.8685 21.0576C16.8685 21.0576 15.21 20.4116 15.2733 19.7911C15.3365 19.1707 15.4886 19.2345 15.4886 19.2345C15.4886 19.2345 14.7799 19.5655 14.1595 19.3821C13.539 19.1986 13.1528 19.0653 11.9478 18.1919C10.7428 17.3185 10.2346 17.1704 10.1081 17.2843C9.98167 17.3983 9.9942 18.1834 10.3736 18.6391L10.7536 19.0949C10.7536 19.0949 10.7029 19.5763 10.8169 19.6014C10.9308 19.6265 11.2727 19.6139 11.3108 19.7911C11.349 19.9683 11.2852 21.6524 11.2852 21.6524C11.2852 21.6524 10.5001 21.1716 10.3736 20.5511C10.2472 19.9307 10.3104 20.0697 10.2472 19.9307C10.1839 19.7917 9.75321 19.6014 9.65237 19.0824C9.55152 18.5634 9.3863 17.2843 9.27236 17.1704C9.15841 17.0564 8.6901 16.9049 7.90502 17.4872C7.11994 18.0694 5.7526 19.4368 5.61359 19.4875C5.47457 19.5382 5.28428 19.4624 5.19541 19.6014C5.10653 19.7404 5.09457 20.3608 4.91681 20.5004C4.73906 20.64 3.20764 20.2093 3.20764 20.2093C3.20764 20.2093 3.1575 20.0447 3.44863 19.8168C3.73976 19.5889 4.34709 19.4368 4.43596 19.3291C4.52484 19.2214 4.51174 18.9684 4.51174 18.9684C4.51174 18.9684 6.48697 17.6769 7.0567 17.2086C7.0567 17.2086 8.39897 16.1073 8.81658 16.0691C9.23419 16.0309 12.9186 17.4114 13.0832 17.335C13.2479 17.2587 13.2348 17.0439 13.1083 17.0314C12.9818 17.0188 10.6904 16.2588 10.6397 16.2463C10.589 16.2338 10.5765 15.8919 10.475 15.8919C10.3736 15.8919 10.2221 16.2719 10.1714 16.2588C10.1207 16.2457 9.27236 15.917 9.22165 15.8919C9.17095 15.8669 8.9687 15.2971 9.09517 15.2208C9.22165 15.1444 9.84208 14.7775 9.91786 14.7775C9.99363 14.7775 13.1812 16.1449 13.3829 16.0987C13.6319 16.0418 14.303 14.3428 14.4802 14.2186C14.6574 14.0944 15.6595 14.0118 15.8476 14.0118C16.0669 14.0118 15.1764 13.7879 14.8089 13.8005C14.8089 13.8005 15.2568 12.1334 16.1934 11.4122C17.13 10.6909 18.4039 10.5342 18.6176 10.4585C18.8312 10.3827 19.038 10.3234 19.0887 10.222C19.1394 10.1206 19.0967 10.0323 18.9702 10.0699C18.8437 10.1075 18.3783 9.96108 18.2615 9.86309C18.1447 9.7651 17.7567 9.45517 17.7926 9.21759C17.8148 9.07573 17.8217 8.93273 17.8393 8.81252C17.8604 8.66894 17.8182 8.64787 17.7294 8.76181C17.6686 8.83273 17.5928 8.88918 17.5074 8.92703C17.4221 8.96488 17.3293 8.98318 17.236 8.98058C17.0081 8.98058 16.358 8.50031 16.1176 8.4496C15.8772 8.39889 15.5268 8.3442 15.4909 8.30603C15.455 8.26786 15.402 8.0525 15.5034 7.98926C15.6049 7.92602 15.7063 7.91349 15.7063 7.86278C15.7063 7.81208 15.5541 7.74884 15.4784 7.69813C15.4026 7.64743 15.4151 7.38193 15.4277 7.31869C15.4402 7.25546 15.7291 7.04238 15.7291 7.04238Z" fill="#990000"/>
<path d="M26.229 24.3535C26.229 24.3535 26.364 25.2144 26.7942 25.7881C26.7942 25.7881 27.0392 25.1722 27.079 24.9528C27.1189 24.7335 26.229 24.3535 26.229 24.3535Z" fill="#990000"/>
<path d="M36.9919 19.5604H36.593C36.5931 23.5044 35.2255 27.3264 32.7235 30.3751C30.2215 33.4239 26.7398 35.5108 22.8716 36.2802C19.0034 37.0497 14.988 36.454 11.5097 34.5949C8.03145 32.7357 5.30541 29.728 3.79611 26.0842C2.2868 22.4405 2.08761 18.3861 3.23248 14.6119C4.37734 10.8378 6.79543 7.57732 10.0747 5.38614C13.354 3.19497 17.2916 2.20864 21.2166 2.59521C25.1416 2.98178 28.8112 4.71733 31.6 7.50615C33.1855 9.08728 34.4428 10.9662 35.2997 13.0349C36.1566 15.1036 36.5961 17.3213 36.593 19.5604H37.3907C37.3907 15.4319 35.9592 11.4311 33.34 8.23969C30.7209 5.0483 27.0763 2.86378 23.0271 2.05834C18.9779 1.25291 14.7747 1.8764 11.1337 3.82257C7.49268 5.76874 4.6391 8.91718 3.05919 12.7314C1.47927 16.5457 1.27077 20.7898 2.46922 24.7405C3.66767 28.6913 6.1989 32.1042 9.63164 34.3979C13.0644 36.6916 17.1862 37.7241 21.2949 37.3194C25.4035 36.9147 29.2447 35.098 32.164 32.1787C33.8235 30.5234 35.1396 28.5566 36.0365 26.3911C36.9335 24.2256 37.3937 21.9043 37.3907 19.5604H36.9919ZM19.5013 0.398821V1.362e-05C14.9898 -0.00028792 10.6178 1.56373 7.13024 4.42557C3.64266 7.28742 1.25529 11.27 0.374914 15.6948C-0.505459 20.1195 0.17564 24.7126 2.30216 28.6915C4.42868 32.6703 7.86904 35.7888 12.037 37.5154C16.205 39.242 20.8428 39.47 25.16 38.1605C29.4773 36.851 33.2069 34.0851 35.7134 30.334C38.2199 26.5829 39.3482 22.0787 38.9061 17.5889C38.464 13.0992 36.4787 8.90162 33.2886 5.71151C31.48 3.8983 29.3309 2.46031 26.9648 1.48015C24.5988 0.499994 22.0624 -0.00301775 19.5013 1.362e-05V0.797629C23.8283 0.797523 28.0216 2.29777 31.3665 5.04275C34.7114 7.78773 37.001 11.6076 37.8453 15.8515C38.6895 20.0954 38.0361 24.5007 35.9964 28.3169C33.9567 32.133 30.6569 35.1238 26.6592 36.7798C22.6616 38.4357 18.2134 38.6543 14.0727 37.3982C9.93197 36.1422 6.35486 33.4892 3.95088 29.8914C1.54689 26.2936 0.46477 21.9736 0.888897 17.6674C1.31302 13.3611 3.21716 9.33521 6.27685 6.27554C8.01148 4.53613 10.0728 3.15673 12.3423 2.21663C14.6118 1.27654 17.0448 0.794299 19.5013 0.797629V0.398821Z" fill="#990000"/>
</svg>
